<mxfile host="65bd71144e">
    <diagram id="pyFOITWGm1L5QSNy7el4" name="Page-1">
        <mxGraphModel dx="1514" dy="936" grid="0" gridSize="10" guides="1" tooltips="1" connect="0" arrows="1" fold="1" page="0" pageScale="1" pageWidth="850" pageHeight="1100" background="#ffffff" math="0" shadow="0">
            <root>
                <mxCell id="0"/>
                <mxCell id="1" parent="0"/>
                <mxCell id="17" value="Phase1:TextUnitを構成する" style="rounded=0;whiteSpace=wrap;html=1;fontSize=14;fontColor=#333333;fillColor=#f5f5f5;strokeColor=#666666;verticalAlign=top;fontStyle=1" parent="1" vertex="1">
                    <mxGeometry x="289" y="96" width="379" height="379" as="geometry"/>
                </mxCell>
                <mxCell id="32" style="edgeStyle=none;hachureGap=4;html=1;fontFamily=Architects Daughter;fontSource=https%3A%2F%2Ffonts.googleapis.com%2Fcss%3Ffamily%3DArchitects%2BDaughter;fontSize=16;entryX=0.5;entryY=0;entryDx=0;entryDy=0;" edge="1" parent="1" source="28" target="29">
                    <mxGeometry relative="1" as="geometry"/>
                </mxCell>
                <mxCell id="28" value="Documents" style="rounded=1;whiteSpace=wrap;html=1;fontSize=14;fontStyle=1;fillColor=#dae8fc;strokeColor=#6c8ebf;" vertex="1" parent="1">
                    <mxGeometry x="392" y="140" width="164" height="46" as="geometry"/>
                </mxCell>
                <mxCell id="35" style="edgeStyle=none;hachureGap=4;html=1;exitX=0.5;exitY=1;exitDx=0;exitDy=0;fontFamily=Architects Daughter;fontSource=https%3A%2F%2Ffonts.googleapis.com%2Fcss%3Ffamily%3DArchitects%2BDaughter;fontSize=16;" edge="1" parent="1" source="29" target="30">
                    <mxGeometry relative="1" as="geometry"/>
                </mxCell>
                <mxCell id="29" value="Chunk化された文章" style="rounded=1;whiteSpace=wrap;html=1;fontSize=14;fontStyle=1;fillColor=#dae8fc;strokeColor=#6c8ebf;" vertex="1" parent="1">
                    <mxGeometry x="392" y="225" width="164" height="46" as="geometry"/>
                </mxCell>
                <mxCell id="37" value="" style="edgeStyle=none;hachureGap=4;html=1;fontFamily=Architects Daughter;fontSource=https%3A%2F%2Ffonts.googleapis.com%2Fcss%3Ffamily%3DArchitects%2BDaughter;fontSize=16;" edge="1" parent="1" source="30" target="36">
                    <mxGeometry relative="1" as="geometry"/>
                </mxCell>
                <mxCell id="30" value="Chunkごとにベクトル化" style="rounded=1;whiteSpace=wrap;html=1;fontSize=14;fontStyle=1;fillColor=#dae8fc;strokeColor=#6c8ebf;" vertex="1" parent="1">
                    <mxGeometry x="392" y="305" width="164" height="46" as="geometry"/>
                </mxCell>
                <mxCell id="74" style="edgeStyle=none;rounded=1;sketch=0;hachureGap=4;jiggle=2;curveFitting=1;html=1;entryX=0.49;entryY=0.004;entryDx=0;entryDy=0;entryPerimeter=0;shadow=0;fontFamily=Architects Daughter;fontSource=https%3A%2F%2Ffonts.googleapis.com%2Fcss%3Ffamily%3DArchitects%2BDaughter;fontSize=16;startArrow=none;startFill=0;startSize=6;" edge="1" parent="1" source="36" target="65">
                    <mxGeometry relative="1" as="geometry"/>
                </mxCell>
                <mxCell id="75" style="edgeStyle=none;rounded=1;sketch=0;hachureGap=4;jiggle=2;curveFitting=1;html=1;entryX=0.489;entryY=-0.003;entryDx=0;entryDy=0;entryPerimeter=0;shadow=0;fontFamily=Architects Daughter;fontSource=https%3A%2F%2Ffonts.googleapis.com%2Fcss%3Ffamily%3DArchitects%2BDaughter;fontSize=16;startArrow=none;startFill=0;startSize=6;" edge="1" parent="1" source="36" target="38">
                    <mxGeometry relative="1" as="geometry"/>
                </mxCell>
                <mxCell id="36" value="TextUnit" style="rounded=1;whiteSpace=wrap;html=1;fontSize=14;fontStyle=1;fillColor=#dae8fc;strokeColor=#6c8ebf;" vertex="1" parent="1">
                    <mxGeometry x="392" y="388" width="164" height="46" as="geometry"/>
                </mxCell>
                <mxCell id="38" value="Phase2：Graph 抽出" style="rounded=0;whiteSpace=wrap;html=1;fontSize=14;fontColor=#333333;fillColor=#f5f5f5;strokeColor=#666666;verticalAlign=top;fontStyle=1" vertex="1" parent="1">
                    <mxGeometry x="513" y="540" width="379" height="379" as="geometry"/>
                </mxCell>
                <mxCell id="63" style="edgeStyle=none;rounded=1;sketch=0;hachureGap=4;jiggle=2;curveFitting=1;html=1;shadow=0;fontFamily=Architects Daughter;fontSource=https%3A%2F%2Ffonts.googleapis.com%2Fcss%3Ffamily%3DArchitects%2BDaughter;fontSize=16;startArrow=none;startFill=0;startSize=6;" edge="1" parent="1" source="40" target="42">
                    <mxGeometry relative="1" as="geometry"/>
                </mxCell>
                <mxCell id="40" value="Entity と Relationship を抽出" style="rounded=1;whiteSpace=wrap;html=1;fontSize=14;fontStyle=1;fillColor=#dae8fc;strokeColor=#6c8ebf;" vertex="1" parent="1">
                    <mxGeometry x="616" y="584" width="164" height="46" as="geometry"/>
                </mxCell>
                <mxCell id="42" value="Entity と Relationship の要約" style="rounded=1;whiteSpace=wrap;html=1;fontSize=14;fontStyle=1;fillColor=#dae8fc;strokeColor=#6c8ebf;" vertex="1" parent="1">
                    <mxGeometry x="616" y="669" width="164" height="46" as="geometry"/>
                </mxCell>
                <mxCell id="44" value="Entity に対する&lt;br&gt;Claim（主張）の抽出" style="rounded=1;whiteSpace=wrap;html=1;fontSize=14;fontStyle=1;fillColor=#dae8fc;strokeColor=#6c8ebf;" vertex="1" parent="1">
                    <mxGeometry x="616" y="749" width="164" height="46" as="geometry"/>
                </mxCell>
                <mxCell id="85" style="edgeStyle=none;rounded=1;sketch=0;hachureGap=4;jiggle=2;curveFitting=1;html=1;entryX=0.492;entryY=-0.002;entryDx=0;entryDy=0;entryPerimeter=0;shadow=0;fontFamily=Architects Daughter;fontSource=https%3A%2F%2Ffonts.googleapis.com%2Fcss%3Ffamily%3DArchitects%2BDaughter;fontSize=16;startArrow=none;startFill=0;startSize=6;" edge="1" parent="1" source="45" target="76">
                    <mxGeometry relative="1" as="geometry"/>
                </mxCell>
                <mxCell id="45" value="Graph Tables" style="rounded=1;whiteSpace=wrap;html=1;fontSize=14;fontStyle=1;fillColor=#dae8fc;strokeColor=#6c8ebf;" vertex="1" parent="1">
                    <mxGeometry x="616" y="832" width="164" height="46" as="geometry"/>
                </mxCell>
                <mxCell id="59" style="edgeStyle=none;hachureGap=4;html=1;exitX=0.5;exitY=1;exitDx=0;exitDy=0;fontFamily=Architects Daughter;fontSource=https%3A%2F%2Ffonts.googleapis.com%2Fcss%3Ffamily%3DArchitects%2BDaughter;fontSize=16;" edge="1" target="61" parent="1">
                    <mxGeometry relative="1" as="geometry">
                        <mxPoint x="698" y="715" as="sourcePoint"/>
                    </mxGeometry>
                </mxCell>
                <mxCell id="64" value="" style="edgeStyle=none;rounded=1;sketch=0;hachureGap=4;jiggle=2;curveFitting=1;html=1;shadow=0;fontFamily=Architects Daughter;fontSource=https%3A%2F%2Ffonts.googleapis.com%2Fcss%3Ffamily%3DArchitects%2BDaughter;fontSize=16;startArrow=none;startFill=0;startSize=6;" edge="1" parent="1" source="61" target="45">
                    <mxGeometry relative="1" as="geometry"/>
                </mxCell>
                <mxCell id="61" value="Entity に対する&lt;br&gt;Claim（主張）の抽出" style="rounded=1;whiteSpace=wrap;html=1;fontSize=14;fontStyle=1;fillColor=#dae8fc;strokeColor=#6c8ebf;" vertex="1" parent="1">
                    <mxGeometry x="616" y="749" width="164" height="46" as="geometry"/>
                </mxCell>
                <mxCell id="65" value="Phase5：Document処理" style="rounded=0;whiteSpace=wrap;html=1;fontSize=14;fontColor=#333333;fillColor=#f5f5f5;strokeColor=#666666;verticalAlign=top;fontStyle=1" vertex="1" parent="1">
                    <mxGeometry x="54" y="540" width="379" height="379" as="geometry"/>
                </mxCell>
                <mxCell id="66" style="edgeStyle=none;rounded=1;sketch=0;hachureGap=4;jiggle=2;curveFitting=1;html=1;shadow=0;fontFamily=Architects Daughter;fontSource=https%3A%2F%2Ffonts.googleapis.com%2Fcss%3Ffamily%3DArchitects%2BDaughter;fontSize=16;startArrow=none;startFill=0;startSize=6;" edge="1" source="67" target="68" parent="1">
                    <mxGeometry relative="1" as="geometry"/>
                </mxCell>
                <mxCell id="67" value="DocumentをTextUnitにリンク" style="rounded=1;whiteSpace=wrap;html=1;fontSize=14;fontStyle=1;fillColor=#dae8fc;strokeColor=#6c8ebf;" vertex="1" parent="1">
                    <mxGeometry x="157" y="584" width="164" height="46" as="geometry"/>
                </mxCell>
                <mxCell id="68" value="Documentをベクトル化（Embedding）" style="rounded=1;whiteSpace=wrap;html=1;fontSize=14;fontStyle=1;fillColor=#dae8fc;strokeColor=#6c8ebf;" vertex="1" parent="1">
                    <mxGeometry x="157" y="669" width="164" height="46" as="geometry"/>
                </mxCell>
                <mxCell id="69" value="Entity に対する&lt;br&gt;Claim（主張）の抽出" style="rounded=1;whiteSpace=wrap;html=1;fontSize=14;fontStyle=1;fillColor=#dae8fc;strokeColor=#6c8ebf;" vertex="1" parent="1">
                    <mxGeometry x="157" y="749" width="164" height="46" as="geometry"/>
                </mxCell>
                <mxCell id="70" value="Document Tables" style="rounded=1;whiteSpace=wrap;html=1;fontSize=14;fontStyle=1;fillColor=#dae8fc;strokeColor=#6c8ebf;" vertex="1" parent="1">
                    <mxGeometry x="157" y="832" width="164" height="46" as="geometry"/>
                </mxCell>
                <mxCell id="71" style="edgeStyle=none;hachureGap=4;html=1;exitX=0.5;exitY=1;exitDx=0;exitDy=0;fontFamily=Architects Daughter;fontSource=https%3A%2F%2Ffonts.googleapis.com%2Fcss%3Ffamily%3DArchitects%2BDaughter;fontSize=16;" edge="1" target="73" parent="1">
                    <mxGeometry relative="1" as="geometry">
                        <mxPoint x="239" y="715" as="sourcePoint"/>
                    </mxGeometry>
                </mxCell>
                <mxCell id="72" value="" style="edgeStyle=none;rounded=1;sketch=0;hachureGap=4;jiggle=2;curveFitting=1;html=1;shadow=0;fontFamily=Architects Daughter;fontSource=https%3A%2F%2Ffonts.googleapis.com%2Fcss%3Ffamily%3DArchitects%2BDaughter;fontSize=16;startArrow=none;startFill=0;startSize=6;" edge="1" source="73" target="70" parent="1">
                    <mxGeometry relative="1" as="geometry"/>
                </mxCell>
                <mxCell id="73" value="Document Graph 作成" style="rounded=1;whiteSpace=wrap;html=1;fontSize=14;fontStyle=1;fillColor=#dae8fc;strokeColor=#6c8ebf;" vertex="1" parent="1">
                    <mxGeometry x="157" y="749" width="164" height="46" as="geometry"/>
                </mxCell>
                <mxCell id="76" value="Phase3：Graphデータの拡張" style="rounded=0;whiteSpace=wrap;html=1;fontSize=14;fontColor=#333333;fillColor=#f5f5f5;strokeColor=#666666;verticalAlign=top;fontStyle=1" vertex="1" parent="1">
                    <mxGeometry x="513" y="957" width="379" height="298" as="geometry"/>
                </mxCell>
                <mxCell id="77" style="edgeStyle=none;rounded=1;sketch=0;hachureGap=4;jiggle=2;curveFitting=1;html=1;shadow=0;fontFamily=Architects Daughter;fontSource=https%3A%2F%2Ffonts.googleapis.com%2Fcss%3Ffamily%3DArchitects%2BDaughter;fontSize=16;startArrow=none;startFill=0;startSize=6;" edge="1" source="78" target="79" parent="1">
                    <mxGeometry relative="1" as="geometry"/>
                </mxCell>
                <mxCell id="78" value="コミュニティ の検出" style="rounded=1;whiteSpace=wrap;html=1;fontSize=14;fontStyle=1;fillColor=#dae8fc;strokeColor=#6c8ebf;" vertex="1" parent="1">
                    <mxGeometry x="616" y="1001" width="164" height="46" as="geometry"/>
                </mxCell>
                <mxCell id="79" value="グラフデータのベクトル化 （Embedding）" style="rounded=1;whiteSpace=wrap;html=1;fontSize=14;fontStyle=1;fillColor=#dae8fc;strokeColor=#6c8ebf;" vertex="1" parent="1">
                    <mxGeometry x="611" y="1086" width="174" height="46" as="geometry"/>
                </mxCell>
                <mxCell id="80" value="Entity に対する&lt;br&gt;Claim（主張）の抽出" style="rounded=1;whiteSpace=wrap;html=1;fontSize=14;fontStyle=1;fillColor=#dae8fc;strokeColor=#6c8ebf;" vertex="1" parent="1">
                    <mxGeometry x="616" y="1166" width="164" height="46" as="geometry"/>
                </mxCell>
                <mxCell id="82" style="edgeStyle=none;hachureGap=4;html=1;exitX=0.5;exitY=1;exitDx=0;exitDy=0;fontFamily=Architects Daughter;fontSource=https%3A%2F%2Ffonts.googleapis.com%2Fcss%3Ffamily%3DArchitects%2BDaughter;fontSize=16;" edge="1" target="84" parent="1">
                    <mxGeometry relative="1" as="geometry">
                        <mxPoint x="697.9999999999998" y="1132" as="sourcePoint"/>
                    </mxGeometry>
                </mxCell>
                <mxCell id="83" value="" style="edgeStyle=none;rounded=1;sketch=0;hachureGap=4;jiggle=2;curveFitting=1;html=1;shadow=0;fontFamily=Architects Daughter;fontSource=https%3A%2F%2Ffonts.googleapis.com%2Fcss%3Ffamily%3DArchitects%2BDaughter;fontSize=16;startArrow=none;startFill=0;startSize=6;entryX=0.486;entryY=0;entryDx=0;entryDy=0;entryPerimeter=0;" edge="1" source="84" target="102" parent="1">
                    <mxGeometry relative="1" as="geometry">
                        <mxPoint x="698.0000000000002" y="1249.0000000000002" as="targetPoint"/>
                    </mxGeometry>
                </mxCell>
                <mxCell id="84" value="拡張 Graph Tables" style="rounded=1;whiteSpace=wrap;html=1;fontSize=14;fontStyle=1;fillColor=#dae8fc;strokeColor=#6c8ebf;" vertex="1" parent="1">
                    <mxGeometry x="616" y="1166" width="164" height="46" as="geometry"/>
                </mxCell>
                <mxCell id="102" value="Phase4：Community" style="rounded=0;whiteSpace=wrap;html=1;fontSize=14;fontColor=#333333;fillColor=#f5f5f5;strokeColor=#666666;verticalAlign=top;fontStyle=1" vertex="1" parent="1">
                    <mxGeometry x="725" y="1330" width="379" height="298" as="geometry"/>
                </mxCell>
                <mxCell id="103" style="edgeStyle=none;rounded=1;sketch=0;hachureGap=4;jiggle=2;curveFitting=1;html=1;shadow=0;fontFamily=Architects Daughter;fontSource=https%3A%2F%2Ffonts.googleapis.com%2Fcss%3Ffamily%3DArchitects%2BDaughter;fontSize=16;startArrow=none;startFill=0;startSize=6;" edge="1" source="104" target="105" parent="1">
                    <mxGeometry relative="1" as="geometry"/>
                </mxCell>
                <mxCell id="104" value="Communityの要約" style="rounded=1;whiteSpace=wrap;html=1;fontSize=14;fontStyle=1;fillColor=#dae8fc;strokeColor=#6c8ebf;" vertex="1" parent="1">
                    <mxGeometry x="828" y="1374" width="164" height="46" as="geometry"/>
                </mxCell>
                <mxCell id="105" value="Communityのベクトル化（Embedding）" style="rounded=1;whiteSpace=wrap;html=1;fontSize=14;fontStyle=1;fillColor=#dae8fc;strokeColor=#6c8ebf;" vertex="1" parent="1">
                    <mxGeometry x="823" y="1459" width="174" height="46" as="geometry"/>
                </mxCell>
                <mxCell id="106" value="Entity に対する&lt;br&gt;Claim（主張）の抽出" style="rounded=1;whiteSpace=wrap;html=1;fontSize=14;fontStyle=1;fillColor=#dae8fc;strokeColor=#6c8ebf;" vertex="1" parent="1">
                    <mxGeometry x="828" y="1539" width="164" height="46" as="geometry"/>
                </mxCell>
                <mxCell id="107" style="edgeStyle=none;hachureGap=4;html=1;exitX=0.5;exitY=1;exitDx=0;exitDy=0;fontFamily=Architects Daughter;fontSource=https%3A%2F%2Ffonts.googleapis.com%2Fcss%3Ffamily%3DArchitects%2BDaughter;fontSize=16;" edge="1" target="109" parent="1">
                    <mxGeometry relative="1" as="geometry">
                        <mxPoint x="909.9999999999998" y="1505" as="sourcePoint"/>
                    </mxGeometry>
                </mxCell>
                <mxCell id="109" value="Community Tables" style="rounded=1;whiteSpace=wrap;html=1;fontSize=14;fontStyle=1;fillColor=#dae8fc;strokeColor=#6c8ebf;" vertex="1" parent="1">
                    <mxGeometry x="828" y="1539" width="164" height="46" as="geometry"/>
                </mxCell>
                <mxCell id="110" value="Phase5：ネットワーク可視化" style="rounded=0;whiteSpace=wrap;html=1;fontSize=14;fontColor=#333333;fillColor=#f5f5f5;strokeColor=#666666;verticalAlign=top;fontStyle=1" vertex="1" parent="1">
                    <mxGeometry x="118" y="1330" width="523" height="298" as="geometry"/>
                </mxCell>
                <mxCell id="121" style="edgeStyle=none;rounded=1;sketch=0;hachureGap=4;jiggle=2;curveFitting=1;html=1;entryX=0.684;entryY=-0.003;entryDx=0;entryDy=0;entryPerimeter=0;shadow=0;fontFamily=Architects Daughter;fontSource=https%3A%2F%2Ffonts.googleapis.com%2Fcss%3Ffamily%3DArchitects%2BDaughter;fontSize=9;startArrow=none;startFill=0;startSize=6;" edge="1" parent="1" source="112" target="116">
                    <mxGeometry relative="1" as="geometry"/>
                </mxCell>
                <mxCell id="112" value="Umap Entity&lt;br&gt;&lt;font style=&quot;font-size: 9px;&quot;&gt;※Entity間の関係性を2次元空間で視覚化できる構造&lt;/font&gt;" style="rounded=1;whiteSpace=wrap;html=1;fontSize=14;fontStyle=1;fillColor=#dae8fc;strokeColor=#6c8ebf;" vertex="1" parent="1">
                    <mxGeometry x="423" y="1388" width="164" height="61" as="geometry"/>
                </mxCell>
                <mxCell id="116" value="Nodes Tables" style="rounded=1;whiteSpace=wrap;html=1;fontSize=14;fontStyle=1;fillColor=#dae8fc;strokeColor=#6c8ebf;" vertex="1" parent="1">
                    <mxGeometry x="297.5" y="1525" width="164" height="46" as="geometry"/>
                </mxCell>
                <mxCell id="120" style="edgeStyle=none;rounded=1;sketch=0;hachureGap=4;jiggle=2;curveFitting=1;html=1;shadow=0;fontFamily=Architects Daughter;fontSource=https%3A%2F%2Ffonts.googleapis.com%2Fcss%3Ffamily%3DArchitects%2BDaughter;fontSize=9;startArrow=none;startFill=0;startSize=6;entryX=0.337;entryY=-0.013;entryDx=0;entryDy=0;entryPerimeter=0;" edge="1" parent="1" source="118" target="116">
                    <mxGeometry relative="1" as="geometry">
                        <mxPoint x="379" y="1523" as="targetPoint"/>
                    </mxGeometry>
                </mxCell>
                <mxCell id="118" value="Umap Documents&lt;br&gt;&lt;font style=&quot;font-size: 9px;&quot;&gt;※Document間の関係性を2次元空間で視覚化できる構造&lt;/font&gt;" style="rounded=1;whiteSpace=wrap;html=1;fontSize=14;fontStyle=1;fillColor=#dae8fc;strokeColor=#6c8ebf;" vertex="1" parent="1">
                    <mxGeometry x="161" y="1388" width="164" height="61" as="geometry"/>
                </mxCell>
                <mxCell id="117" style="edgeStyle=none;rounded=1;sketch=0;hachureGap=4;jiggle=2;curveFitting=1;html=1;shadow=0;fontFamily=Architects Daughter;fontSource=https%3A%2F%2Ffonts.googleapis.com%2Fcss%3Ffamily%3DArchitects%2BDaughter;fontSize=16;startArrow=none;startFill=0;startSize=6;entryX=0.501;entryY=-0.018;entryDx=0;entryDy=0;entryPerimeter=0;" edge="1" parent="1" source="84" target="112">
                    <mxGeometry relative="1" as="geometry">
                        <mxPoint x="532.4376017252605" y="1300.80215326945" as="targetPoint"/>
                    </mxGeometry>
                </mxCell>
                <mxCell id="119" style="edgeStyle=none;rounded=1;sketch=0;hachureGap=4;jiggle=2;curveFitting=1;html=1;entryX=0.492;entryY=0.005;entryDx=0;entryDy=0;entryPerimeter=0;shadow=0;fontFamily=Architects Daughter;fontSource=https%3A%2F%2Ffonts.googleapis.com%2Fcss%3Ffamily%3DArchitects%2BDaughter;fontSize=9;startArrow=none;startFill=0;startSize=6;" edge="1" parent="1" source="70" target="118">
                    <mxGeometry relative="1" as="geometry"/>
                </mxCell>
            </root>
        </mxGraphModel>
    </diagram>
</mxfile>